# xmcd
# Track frame offsets:
# 150
# 13197
# 26113
# 39511
# 53454
# 67464
# 79761
# 92138
# 104634
# 117400
# 130356
# 143372
# 157974
# 171918
# 185957
# 197562
# 210127
# 223392
# 236951
# 251221
#
# Disc length: 3547 seconds
# Revision: 0
# Processed by: cddbd v1.4PL0 Copyright (c) Steve Scherf et al.
# Submitted via: VisiTrax 2.9.5.181 - For more info visit www.synapsa.com
#
DISCID=300dd914
DTITLE=Various Artist - Blues Origins
DYEAR=2002
DGENRE=
TTITLE0=Robert Johnson - When You Got A Friend
TTITLE1=Big Bill Broonzy - You Know I Got  A Reason
TTITLE2=Leroy Carr - Good Woman  Blues
TTITLE3=Big Bill Broonzy - Worrying You Off My Mind
TTITLE4=Blind Boy Fuller - I'm A Rattlesnakin' Daddy
TTITLE5=Roosevelt Sykes - 15 c A Day
TTITLE6=Brownie McGhee - Picking My Tomatoes
TTITLE7=Lonnie Johnson - Mr Johnson's Swing
TTITLE8=Arthur 'Big Boy' Crudup - Gonna Follow My Baby
TTITLE9=Robert Johnson - Preaching Blues
TTITLE10=Leadbelly - Good Morning BLues
TTITLE11=Blind Boy Fuller - Baby You Gotta Change Your Mind
TTITLE12=Sonny Boy Williamson - Blue BirdsBlues
TTITLE13=Blind Willie McTell - Broke Down Engine
TTITLE14=Robert Johnson - Phonographic Blues
TTITLE15=Champion Jack Dupree - Gamblin' Man Blues
TTITLE16=Tampa Red - Denver Blues
TTITLE17=Tampa Red - You Can't Get That Stuff No More
TTITLE18=Leroy Carr - Midnight Hours Blues
TTITLE19=Joe Turner - Rocks In My Bed
EXTD=
EXTT0=
EXTT1=
EXTT2=
EXTT3=
EXTT4=
EXTT5=
EXTT6=
EXTT7=
EXTT8=
EXTT9=
EXTT10=
EXTT11=
EXTT12=
EXTT13=
EXTT14=
EXTT15=
EXTT16=
EXTT17=
EXTT18=
EXTT19=
PLAYORDER=
